<svg width="1920" height="6868" viewBox="0 0 1920 6868" fill="none" xmlns="http://www.w3.org/2000/svg">
<g clip-path="url(#clip0_31_13)">
<rect width="1920" height="6868" fill="#101411"/>
<path fill-rule="evenodd" clip-rule="evenodd" d="M3176.76 1979L3945.78 1606.4C3955.07 1601.93 3965.49 1600.34 3975.73 1601.84C3985.97 1603.34 3995.57 1607.86 4003.33 1614.83C4011.08 1621.8 4016.64 1630.91 4019.31 1641C4021.97 1651.1 4021.62 1661.73 4018.3 1671.56L3913.85 1979H3176.76ZM433.521 1979C436.655 1977.04 439.899 1975.24 443.238 1973.63L2390.14 1030.33C2399.47 1025.78 2407.22 1018.51 2412.39 1009.46C2417.56 1000.41 2419.92 989.975 2419.16 979.499C2418.41 969.023 2414.58 958.98 2408.16 950.65C2401.74 942.321 2393.02 936.085 2383.12 932.739L989.076 462.364C962.847 453.065 934.14 454.612 909.266 466.664C884.391 478.716 865.386 500.287 856.428 526.634L363.09 1979H433.521ZM2754.25 4656L2878.52 4700.1C2904.75 4709.4 2933.46 4707.85 2958.33 4695.8C2976.5 4686.99 2991.54 4673.11 3001.82 4656H2754.25Z" fill="url(#paint0_linear_31_13)"/>
<path d="M2876.81 2393.02L2876.81 731.099C2876.79 722.926 2874.3 714.944 2869.66 708.173C2865.02 701.403 2858.44 696.151 2850.76 693.089C2843.08 690.027 2834.65 689.293 2826.55 690.983C2818.44 692.672 2811.03 696.707 2805.26 702.572L2006.1 1517.03C2000.35 1522.91 1992.95 1526.97 1984.84 1528.67C1976.74 1530.37 1968.3 1529.63 1960.62 1526.57C1952.94 1523.5 1946.37 1518.24 1941.75 1511.45C1937.12 1504.67 1934.66 1496.68 1934.68 1488.5L1934.68 -214.51C1934.68 -236.278 1943.44 -257.154 1959.04 -272.546C1974.64 -287.938 1995.8 -296.584 2017.86 -296.584L3735.75 -296.584C3746.68 -296.584 3757.5 -294.462 3767.59 -290.337C3777.68 -286.212 3786.85 -280.167 3794.58 -272.546C3802.3 -264.924 3808.43 -255.877 3812.61 -245.919C3816.79 -235.961 3818.94 -225.288 3818.94 -214.51L3818.94 1488.63C3818.96 1496.8 3821.45 1504.78 3826.09 1511.55C3830.73 1518.32 3837.31 1523.57 3844.99 1526.64C3852.67 1529.7 3861.1 1530.43 3869.21 1528.74C3877.31 1527.05 3884.72 1523.02 3890.49 1517.15L4702.27 690.968C4717.86 675.577 4726.62 654.708 4726.62 632.948C4726.62 611.188 4717.86 590.318 4702.27 574.928L2935.62 -1167.98C2920.02 -1183.36 2898.86 -1192 2876.81 -1192C2854.75 -1192 2833.6 -1183.36 2818 -1167.98L1051.35 574.928C1035.76 590.318 1027 611.188 1027 632.948C1027 654.708 1035.76 675.577 1051.35 690.968L2805.75 2422.03C2811.58 2427.75 2818.99 2431.65 2827.06 2433.23C2835.12 2434.81 2843.48 2433.99 2851.08 2430.89C2858.68 2427.79 2865.18 2422.54 2869.76 2415.8C2874.34 2409.06 2876.79 2401.13 2876.81 2393.02Z" fill="url(#paint1_linear_31_13)"/>
<path d="M-2046.75 4311.5L-9.92765 4311.5C0.0889774 4311.48 9.87134 4308.43 18.1693 4302.74C26.4673 4297.05 32.9036 4288.99 36.6565 4279.57C40.4095 4270.16 41.3083 4259.82 39.238 4249.89C37.1677 4239.95 32.2224 4230.87 25.0339 4223.8L-973.158 3244.18C-980.369 3237.13 -985.334 3228.06 -987.417 3218.12C-989.5 3208.19 -988.605 3197.85 -984.846 3188.44C-981.087 3179.02 -974.635 3170.97 -966.322 3165.3C-958.009 3159.63 -948.214 3156.61 -938.196 3156.63L1149 3156.63C1175.68 3156.63 1201.26 3167.37 1220.13 3186.5C1238.99 3205.62 1249.59 3231.56 1249.59 3258.6L1249.59 5364.4C1249.59 5377.79 1246.99 5391.05 1241.93 5403.42C1236.88 5415.79 1229.47 5427.03 1220.13 5436.5C1210.79 5445.97 1199.7 5453.48 1187.49 5458.61C1175.29 5463.73 1162.21 5466.37 1149 5466.37L-938.344 5466.37C-948.361 5466.39 -958.143 5469.44 -966.441 5475.13C-974.739 5480.82 -981.176 5488.88 -984.929 5498.3C-988.682 5507.71 -989.579 5518.05 -987.509 5527.98C-985.439 5537.92 -980.494 5547 -973.306 5554.07L39.2563 6549.15C58.119 6568.26 83.6961 6579 110.365 6579C137.034 6579 162.611 6568.26 181.474 6549.15L2317.56 4383.59C2336.41 4364.46 2347 4338.53 2347 4311.5C2347 4284.46 2336.41 4258.54 2317.56 4239.41L181.473 2073.85C162.611 2054.74 137.033 2044 110.365 2044C83.6957 2044 58.1186 2054.74 39.2559 2073.85L-2082.31 4224.4C-2089.33 4231.54 -2094.11 4240.62 -2096.04 4250.51C-2097.97 4260.4 -2096.98 4270.65 -2093.17 4279.96C-2089.37 4289.28 -2082.93 4297.24 -2074.67 4302.86C-2066.41 4308.47 -2056.7 4311.48 -2046.75 4311.5Z" fill="url(#paint2_linear_31_13)"/>
<path d="M129 1480V1482H135.586L127 1490.59L122.707 1486.29C122.519 1486.11 122.265 1486 122 1486C121.735 1486 121.481 1486.11 121.293 1486.29L111 1496.59L112.414 1498L122 1488.41L126.293 1492.71C126.481 1492.89 126.735 1493 127 1493C127.265 1493 127.519 1492.89 127.707 1492.71L137 1483.41V1490H139V1480H129Z" fill="black"/>
</g>
<defs>
<linearGradient id="paint0_linear_31_13" x1="2454" y1="1006" x2="724.855" y2="998.221" gradientUnits="userSpaceOnUse">
<stop stop-color="#ABBEFF"/>
<stop offset="0.918501" stop-color="#101411"/>
</linearGradient>
<linearGradient id="paint1_linear_31_13" x1="2962" y1="-110" x2="1851.53" y2="1474.69" gradientUnits="userSpaceOnUse">
<stop offset="0.422362" stop-color="#ABBEFF"/>
<stop offset="0.979567" stop-color="#212121" stop-opacity="0"/>
</linearGradient>
<linearGradient id="paint2_linear_31_13" x1="1020.91" y1="4415.93" x2="-745.658" y2="2519.21" gradientUnits="userSpaceOnUse">
<stop offset="0.196962" stop-color="#FF6A50"/>
<stop offset="0.979567" stop-color="#212121" stop-opacity="0"/>
</linearGradient>
<clipPath id="clip0_31_13">
<rect width="1920" height="6868" fill="white"/>
</clipPath>
</defs>
</svg>
