<?xml version="1.0" encoding="utf-8"?>
<!-- Generator: Adobe Illustrator 26.4.1, SVG Export Plug-In . SVG Version: 6.00 Build 0)  -->
<svg version="1.1" id="Layer_1" xmlns="http://www.w3.org/2000/svg" xmlns:xlink="http://www.w3.org/1999/xlink" x="0px" y="0px"
	 viewBox="0 0 1920 6868" style="enable-background:new 0 0 1920 6868;" xml:space="preserve">
<style type="text/css">
	.st0{clip-path:url(#SVGID_00000139994832710492317490000009665139381150244260_);}
	.st1{fill:#101411;}
	.st2{fill-rule:evenodd;clip-rule:evenodd;fill:url(#SVGID_00000009578636710525419820000017973106613615669927_);}
	.st3{fill:url(#SVGID_00000122712761554830881910000011032974496253905587_);}
	.st4{fill:url(#SVGID_00000066485136429396194910000013735326369817306040_);}
	.st5{fill:url(#SVGID_00000088855528016006288870000008603659810215698603_);}
	.st6{fill:url(#SVGID_00000088125311026074690070000012724361836895987122_);}
	.st7{fill:url(#SVGID_00000041281956851067762050000000221868964938517922_);}
</style>
<g>
	<defs>
		<rect id="SVGID_1_" x="-6" width="1920" height="6868"/>
	</defs>
	<clipPath id="SVGID_00000137840064136218105230000005715112697702347145_">
		<use xlink:href="#SVGID_1_"  style="overflow:visible;"/>
	</clipPath>
	<g style="clip-path:url(#SVGID_00000137840064136218105230000005715112697702347145_);">
		<rect x="-6" class="st1" width="1920" height="6868"/>
		
			<linearGradient id="SVGID_00000085250323024965784250000013194666431122215301_" gradientUnits="userSpaceOnUse" x1="2440.9033" y1="4284.46" x2="711.7582" y2="4292.2388" gradientTransform="matrix(1 0 0 -1 0 6868)">
			<stop  offset="0" style="stop-color:#ABBEFF"/>
			<stop  offset="0.9185" style="stop-color:#101411"/>
		</linearGradient>
		<path style="fill-rule:evenodd;clip-rule:evenodd;fill:url(#SVGID_00000085250323024965784250000013194666431122215301_);" d="
			M3170.8,1979l769-372.6c9.3-4.5,19.7-6.1,29.9-4.6s19.8,6,27.6,13c7.8,7,13.3,16.1,16,26.2c2.7,10.1,2.3,20.7-1,30.6L3907.9,1979
			H3170.8z M427.5,1979c3.1-2,6.4-3.8,9.7-5.4l1946.9-943.3c9.3-4.5,17.1-11.8,22.2-20.9c5.2-9.1,7.5-19.5,6.8-30
			c-0.8-10.5-4.6-20.5-11-28.8c-6.4-8.3-15.1-14.6-25-17.9l-1394-470.4c-26.2-9.3-54.9-7.8-79.8,4.3c-24.9,12.1-43.9,33.6-52.8,60
			L357.1,1979H427.5z M2748.2,4656l124.3,44.1c26.2,9.3,54.9,7.8,79.8-4.3c18.2-8.8,33.2-22.7,43.5-39.8H2748.2z"/>
		
			<linearGradient id="SVGID_00000075147729292244094920000015978629437640173711_" gradientUnits="userSpaceOnUse" x1="3248.0293" y1="6773.3608" x2="2137.5593" y2="5188.6709" gradientTransform="matrix(1 0 0 -1 0 6868)">
			<stop  offset="0.4224" style="stop-color:#ABBEFF"/>
			<stop  offset="0.9796" style="stop-color:#212121;stop-opacity:0"/>
		</linearGradient>
		<path style="fill:url(#SVGID_00000075147729292244094920000015978629437640173711_);" d="M2870.8,2393V731.1
			c0-8.2-2.5-16.2-7.2-22.9c-4.6-6.8-11.2-12-18.9-15.1s-16.1-3.8-24.2-2.1c-8.1,1.7-15.5,5.7-21.3,11.6L2000.1,1517
			c-5.8,5.9-13.2,9.9-21.3,11.6c-8.1,1.7-16.5,1-24.2-2.1c-7.7-3.1-14.2-8.3-18.9-15.1c-4.6-6.8-7.1-14.8-7.1-22.9v-1703
			c0-21.8,8.8-42.6,24.4-58c15.6-15.4,36.8-24,58.8-24h1717.9c10.9,0,21.8,2.1,31.8,6.2c10.1,4.1,19.3,10.2,27,17.8
			c7.7,7.6,13.8,16.7,18,26.6c4.2,10,6.3,20.6,6.3,31.4v1703.1c0,8.2,2.5,16.2,7.2,22.9c4.6,6.8,11.2,12,18.9,15.1
			c7.7,3.1,16.1,3.8,24.2,2.1c8.1-1.7,15.5-5.7,21.3-11.6L4696.3,691c15.6-15.4,24.4-36.3,24.4-58s-8.8-42.6-24.4-58L2929.6-1168
			c-15.6-15.4-36.8-24-58.8-24c-22.1,0-43.2,8.6-58.8,24L1045.3,574.9c-15.6,15.4-24.3,36.3-24.3,58s8.8,42.6,24.3,58L2799.8,2422
			c5.8,5.7,13.2,9.6,21.3,11.2c8.1,1.6,16.4,0.8,24-2.3c7.6-3.1,14.1-8.3,18.7-15.1S2870.8,2401.1,2870.8,2393z"/>
		
			<linearGradient id="SVGID_00000111912787092437895070000006257298073552304290_" gradientUnits="userSpaceOnUse" x1="-1007.774" y1="3065.5928" x2="-2774.342" y2="4962.313" gradientTransform="matrix(1 0 0 -1 0 6868)">
			<stop  offset="0.197" style="stop-color:#FF6A50"/>
			<stop  offset="0.9796" style="stop-color:#212121;stop-opacity:0"/>
		</linearGradient>
		<path style="fill:url(#SVGID_00000111912787092437895070000006257298073552304290_);" d="M-3648.9,3300.7H-1612
			c10,0,19.8-3.1,28.1-8.8c8.3-5.7,14.7-13.8,18.5-23.2c3.8-9.4,4.7-19.8,2.6-29.7c-2.1-9.9-7-19-14.2-26.1l-998.2-979.6
			c-7.2-7.1-12.2-16.1-14.3-26.1c-2.1-9.9-1.2-20.3,2.6-29.7c3.8-9.4,10.2-17.5,18.5-23.1c8.3-5.7,18.1-8.7,28.1-8.7h2087.2
			c26.7,0,52.3,10.7,71.1,29.9c18.9,19.1,29.5,45.1,29.5,72.1v2105.8c0,13.4-2.6,26.6-7.7,39c-5.1,12.4-12.5,23.6-21.8,33.1
			s-20.4,17-32.6,22.1c-12.2,5.1-25.3,7.8-38.5,7.8h-2087.3c-10,0-19.8,3.1-28.1,8.8s-14.7,13.8-18.5,23.2
			c-3.8,9.4-4.6,19.8-2.6,29.7c2.1,9.9,7,19,14.2,26.1l1012.6,995.1c18.9,19.1,44.4,29.9,71.1,29.9s52.2-10.7,71.1-29.9
			L715.4,3372.8c18.8-19.1,29.4-45.1,29.4-72.1c0-27-10.6-53-29.4-72.1L-1420.6,1063c-18.9-19.1-44.4-29.9-71.1-29.9
			c-26.7,0-52.2,10.7-71.1,29.9l-2121.6,2150.5c-7,7.1-11.8,16.2-13.7,26.1c-1.9,9.9-0.9,20.1,2.9,29.5c3.8,9.3,10.2,17.3,18.5,22.9
			C-3668.5,3297.6-3658.8,3300.7-3648.9,3300.7z"/>
		
			<linearGradient id="SVGID_00000096755158107078491040000005319371845887984008_" gradientUnits="userSpaceOnUse" x1="-6715.377" y1="1310.3405" x2="-8481.9453" y2="3207.0605" gradientTransform="matrix(-0.9467 0.322 0.322 0.9467 -3865.0491 4937.7031)">
			<stop  offset="0.197" style="stop-color:#FF6A50"/>
			<stop  offset="0.9796" style="stop-color:#212121;stop-opacity:0"/>
		</linearGradient>
		<path style="fill:url(#SVGID_00000096755158107078491040000005319371845887984008_);" d="M5576.5,3640l-1928.3,656
			c-9.5,3.2-17.8,9.3-23.8,17.3c-6,8.1-9.5,17.8-10,27.9c-0.5,10.1,2,20.2,7.1,28.9c5.2,8.7,12.8,15.7,21.8,20.1l1260.5,606
			c9.1,4.4,16.7,11.3,21.9,20.1c5.2,8.7,7.7,18.8,7.1,28.9c-0.5,10.1-4,19.8-10.1,27.9c-6,8-14.3,14.1-23.8,17.3l-1976,672.2
			c-25.3,8.6-52.9,6.7-77-5.4c-24-12-42.4-33.2-51.1-58.8l-678.2-1993.6c-4.3-12.7-6.1-26.1-5.3-39.4c0.8-13.3,4.2-26.4,10-38.3
			s13.9-22.7,23.8-31.4c9.9-8.8,21.4-15.5,33.9-19.7l1976.1-672.2c9.5-3.2,17.8-9.3,23.8-17.3s9.5-17.8,10-27.9
			c0.5-10.1-2-20.2-7.1-28.9c-5.2-8.7-12.8-15.7-21.8-20.1l-1279.1-616c-24-12-51.7-13.9-76.9-5.4c-25.2,8.6-46,27-57.7,51.2
			L1421.5,4977.3c-11.7,24.2-13.4,52.1-4.7,77.7c8.7,25.6,27.1,46.7,51.1,58.8L4187.6,6476c24,12,51.7,13.9,76.9,5.4
			c25.2-8.6,46-27,57.7-51.2l1316-2719.2c4.3-9,5.9-19.2,4.6-29.1c-1.4-10-5.6-19.4-12.2-27c-6.6-7.6-15.3-13.1-24.9-15.7
			C5596.1,3636.5,5585.9,3636.8,5576.5,3640z"/>
		
			<linearGradient id="SVGID_00000116214626797129474330000006742757659517434783_" gradientUnits="userSpaceOnUse" x1="2486.6892" y1="-107.7061" x2="720.1211" y2="1789.0139" gradientTransform="matrix(1 0 0 -1 0 6868)">
			<stop  offset="0.197" style="stop-color:#FF6A50"/>
			<stop  offset="0.9796" style="stop-color:#212121;stop-opacity:0"/>
		</linearGradient>
		<path style="fill:url(#SVGID_00000116214626797129474330000006742757659517434783_);" d="M-154.4,6474h2036.8
			c10,0,19.8-3.1,28.1-8.8c8.3-5.7,14.7-13.8,18.5-23.2c3.8-9.4,4.7-19.8,2.6-29.7c-2.1-9.9-7-19-14.2-26.1l-998.2-979.6
			c-7.2-7-12.2-16.1-14.3-26.1c-2.1-9.9-1.2-20.3,2.6-29.7c3.8-9.4,10.2-17.5,18.5-23.1c8.3-5.7,18.1-8.7,28.1-8.7h2087.2
			c26.7,0,52.3,10.7,71.1,29.9c18.9,19.1,29.5,45.1,29.5,72.1v2105.8c0,13.4-2.6,26.6-7.7,39c-5.1,12.4-12.5,23.6-21.8,33.1
			c-9.3,9.5-20.4,17-32.6,22.1c-12.2,5.1-25.3,7.8-38.5,7.8H954c-10,0-19.8,3.1-28.1,8.8c-8.3,5.7-14.7,13.8-18.5,23.2
			c-3.8,9.4-4.6,19.8-2.6,29.7c2.1,9.9,7,19,14.2,26.1l1012.6,995.1c18.9,19.1,44.4,29.9,71.1,29.9s52.2-10.7,71.1-29.9
			l2136.1-2165.6c18.9-19.1,29.4-45.1,29.4-72.1c0-27-10.6-53-29.4-72.1L2073.8,4236.3c-18.9-19.1-44.4-29.9-71.1-29.9
			c-26.7,0-52.2,10.7-71.1,29.9L-190,6386.9c-7,7.1-11.8,16.2-13.7,26.1c-1.9,9.9-0.9,20.1,2.9,29.5c3.8,9.3,10.2,17.3,18.5,22.9
			C-174.1,6470.9-164.4,6474-154.4,6474z"/>
		
			<linearGradient id="SVGID_00000023960178624380091450000014408156946322852483_" gradientUnits="userSpaceOnUse" x1="3295.217" y1="3105.4639" x2="1528.6489" y2="5002.1841" gradientTransform="matrix(1 0 0 -1 0 6868)">
			<stop  offset="0.197" style="stop-color:#FF6A50"/>
			<stop  offset="0.9796" style="stop-color:#212121;stop-opacity:0"/>
		</linearGradient>
		<path style="fill:url(#SVGID_00000023960178624380091450000014408156946322852483_);" d="M654.1,3260.8h2036.8
			c10,0,19.8-3.1,28.1-8.8c8.3-5.7,14.7-13.8,18.5-23.2c3.8-9.4,4.7-19.8,2.6-29.7c-2.1-9.9-7-19-14.2-26.1l-998.2-979.6
			c-7.2-7.1-12.2-16.1-14.3-26.1c-2.1-9.9-1.2-20.3,2.6-29.7c3.8-9.4,10.2-17.5,18.5-23.1c8.3-5.7,18.1-8.7,28.1-8.7h2087.2
			c26.7,0,52.3,10.7,71.1,29.9c18.9,19.1,29.5,45.1,29.5,72.1v2105.8c0,13.4-2.6,26.6-7.7,39c-5.1,12.4-12.5,23.6-21.8,33.1
			c-9.3,9.5-20.4,17-32.6,22.1c-12.2,5.1-25.3,7.8-38.5,7.8H1762.5c-10,0-19.8,3.1-28.1,8.8c-8.3,5.7-14.7,13.8-18.5,23.2
			c-3.8,9.4-4.7,19.8-2.6,29.7c2.1,9.9,7,19,14.2,26.1l1012.6,995.1c18.9,19.1,44.4,29.9,71.1,29.9s52.2-10.7,71.1-29.9
			l2136.1-2165.6c18.9-19.1,29.4-45.1,29.4-72.1c0-27-10.6-53-29.4-72.1L2882.3,1023.2c-18.9-19.1-44.4-29.9-71.1-29.9
			c-26.7,0-52.2,10.7-71.1,29.9L618.6,3173.7c-7,7.1-11.8,16.2-13.7,26.1c-1.9,9.9-0.9,20.1,2.9,29.5c3.8,9.3,10.2,17.3,18.5,22.9
			C634.5,3257.8,644.2,3260.8,654.1,3260.8z"/>
	</g>
</g>
</svg>
