<svg xmlns="http://www.w3.org/2000/svg" width="1920" height="2099" viewBox="0 0 1920 2099" fill="none">
<g clip-path="url(#clip0_2_1097)">
<rect width="1920" height="2099" fill="url(#paint0_linear_2_1097)"/>
<rect width="1920" height="2099" fill="black" fill-opacity="0.5"/>
<path d="M2876.42 2857.02L2876.42 1195.1C2876.4 1186.93 2873.92 1178.94 2869.28 1172.17C2864.64 1165.4 2858.06 1160.15 2850.38 1157.09C2842.7 1154.03 2834.26 1153.29 2826.16 1154.98C2818.05 1156.67 2810.64 1160.71 2804.88 1166.57L2005.72 1981.03C1999.97 1986.91 1992.56 1990.97 1984.46 1992.67C1976.35 1994.37 1967.92 1993.63 1960.24 1990.57C1952.56 1987.5 1945.99 1982.24 1941.36 1975.45C1936.74 1968.67 1934.27 1960.68 1934.29 1952.5L1934.29 249.49C1934.29 227.722 1943.06 206.846 1958.66 191.454C1974.26 176.062 1995.42 167.416 2017.48 167.416L3735.37 167.416C3746.29 167.416 3757.11 169.538 3767.2 173.663C3777.3 177.788 3786.47 183.833 3794.19 191.454C3801.92 199.076 3808.04 208.123 3812.22 218.081C3816.4 228.039 3818.56 238.712 3818.56 249.49L3818.56 1952.63C3818.57 1960.8 3821.06 1968.78 3825.7 1975.55C3830.34 1982.32 3836.92 1987.57 3844.6 1990.64C3852.28 1993.7 3860.72 1994.43 3868.82 1992.74C3876.92 1991.05 3884.34 1987.02 3890.1 1981.15L4701.88 1154.97C4717.47 1139.58 4726.23 1118.71 4726.23 1096.95C4726.23 1075.19 4717.47 1054.32 4701.88 1038.93L2935.23 -703.976C2919.63 -719.359 2898.48 -728 2876.42 -728C2854.37 -728 2833.22 -719.359 2817.62 -703.976L1050.97 1038.93C1035.37 1054.32 1026.62 1075.19 1026.62 1096.95C1026.62 1118.71 1035.37 1139.58 1050.97 1154.97L2805.37 2886.03C2811.19 2891.75 2818.6 2895.65 2826.67 2897.23C2834.74 2898.81 2843.1 2897.99 2850.7 2894.89C2858.29 2891.79 2864.79 2886.54 2869.37 2879.8C2873.95 2873.06 2876.4 2865.13 2876.42 2857.02Z" fill="url(#paint1_linear_2_1097)" fill-opacity="0.25"/>
<path d="M-1109.19 2058.02L-1109.19 396.098C-1109.21 387.926 -1111.7 379.944 -1116.34 373.173C-1120.98 366.403 -1127.56 361.151 -1135.24 358.089C-1142.92 355.027 -1151.35 354.293 -1159.46 355.982C-1167.56 357.672 -1174.97 361.707 -1180.74 367.572L-1979.9 1182.03C-1985.65 1187.91 -1993.05 1191.97 -2001.16 1193.67C-2009.26 1195.36 -2017.7 1194.63 -2025.38 1191.57C-2033.06 1188.5 -2039.63 1183.24 -2044.25 1176.45C-2048.88 1169.67 -2051.34 1161.68 -2051.33 1153.5L-2051.32 -549.51C-2051.32 -571.278 -2042.56 -592.154 -2026.96 -607.546C-2011.36 -622.938 -1990.2 -631.585 -1968.14 -631.585L-250.247 -631.584C-239.323 -631.584 -228.505 -629.462 -218.412 -625.337C-208.32 -621.212 -199.149 -615.167 -191.425 -607.546C-183.7 -599.925 -177.572 -590.877 -173.392 -580.919C-169.211 -570.961 -167.06 -560.288 -167.06 -549.51L-167.06 1153.63C-167.041 1161.8 -164.553 1169.78 -159.913 1176.55C-155.273 1183.32 -148.693 1188.57 -141.012 1191.64C-133.332 1194.7 -124.901 1195.43 -116.796 1193.74C-108.691 1192.05 -101.281 1188.02 -95.5118 1182.15L716.266 355.968C731.857 340.577 740.615 319.708 740.615 297.948C740.615 276.188 731.857 255.318 716.266 239.928L-1050.39 -1502.98C-1065.98 -1518.36 -1087.14 -1527 -1109.19 -1527C-1131.25 -1527 -1152.4 -1518.36 -1168 -1502.98L-2934.65 239.927C-2950.24 255.318 -2959 276.187 -2959 297.948C-2959 319.708 -2950.24 340.577 -2934.65 355.968L-1180.25 2087.03C-1174.43 2092.75 -1167.01 2096.65 -1158.95 2098.23C-1150.88 2099.81 -1142.52 2098.99 -1134.92 2095.89C-1127.32 2092.79 -1120.82 2087.54 -1116.24 2080.8C-1111.67 2074.06 -1109.21 2066.13 -1109.19 2058.02Z" fill="url(#paint2_linear_2_1097)" fill-opacity="0.25"/>
</g>
<defs>
<linearGradient id="paint0_linear_2_1097" x1="960" y1="-1311.88" x2="960" y2="3092.53" gradientUnits="userSpaceOnUse">
<stop stop-color="#ABBEFF"/>
<stop offset="0.482923" stop-color="#101411"/>
</linearGradient>
<linearGradient id="paint1_linear_2_1097" x1="2895.96" y1="413.479" x2="1576.56" y2="1644.59" gradientUnits="userSpaceOnUse">
<stop offset="0.465801" stop-color="#ABBEFF"/>
<stop offset="1" stop-color="#101411"/>
</linearGradient>
<linearGradient id="paint2_linear_2_1097" x1="-812" y1="-450" x2="409.006" y2="999.247" gradientUnits="userSpaceOnUse">
<stop offset="0.599881" stop-color="#ABBEFF"/>
<stop offset="0.904958" stop-color="#101411"/>
</linearGradient>
<clipPath id="clip0_2_1097">
<rect width="1920" height="2099" fill="white"/>
</clipPath>
</defs>
</svg>