<svg fill="none" height="2099" viewBox="0 0 1920 2099" width="1920" xmlns="http://www.w3.org/2000/svg" xmlns:xlink="http://www.w3.org/1999/xlink"><linearGradient id="a" gradientUnits="userSpaceOnUse" x1="960" x2="960" y1="-1311.88" y2="3092.53"><stop offset="0" stop-color="#abbeff"/><stop offset=".482923" stop-color="#101411"/></linearGradient><linearGradient id="b" gradientUnits="userSpaceOnUse" x1="2895.96" x2="1576.56" y1="413.479" y2="1644.59"><stop offset=".465801" stop-color="#abbeff"/><stop offset="1" stop-color="#101411"/></linearGradient><linearGradient id="c" gradientUnits="userSpaceOnUse" x1="-812" x2="409.006" y1="-450" y2="999.247"><stop offset=".599881" stop-color="#abbeff"/><stop offset=".904958" stop-color="#101411"/></linearGradient><clipPath id="d"><path d="m0 0h1920v2099h-1920z"/></clipPath><g clip-path="url(#d)"><path d="m0 0h1920v2099h-1920z" fill="url(#a)"/><path d="m0 0h1920v2099h-1920z" fill="#000" fill-opacity=".5"/><g fill-opacity=".25"><path d="m2876.42 2857.02v-1661.92c-.02-8.17-2.5-16.16-7.14-22.93s-11.22-12.02-18.9-15.08-16.12-3.8-24.22-2.11c-8.11 1.69-15.52 5.73-21.28 11.59l-799.16 814.46c-5.75 5.88-13.16 9.94-21.26 11.64-8.11 1.7-16.54.96-24.22-2.1-7.68-3.07-14.25-8.33-18.88-15.12-4.62-6.78-7.09-14.77-7.07-22.95v-1703.01c0-21.768 8.77-42.644 24.37-58.036s36.76-24.038 58.82-24.038h1717.89c10.92 0 21.74 2.122 31.83 6.247 10.1 4.125 19.27 10.17 26.99 17.791 7.73 7.622 13.85 16.669 18.03 26.627s6.34 20.631 6.34 31.409v1703.14c.01 8.17 2.5 16.15 7.14 22.92s11.22 12.02 18.9 15.09c7.68 3.06 16.12 3.79 24.22 2.1s15.52-5.72 21.28-11.59l811.78-826.18c15.59-15.39 24.35-36.26 24.35-58.02s-8.76-42.63-24.35-58.02l-1766.65-1742.906c-15.6-15.383-36.75-24.024-58.81-24.024-22.05 0-43.2 8.641-58.8 24.024l-1766.65 1742.906c-15.6 15.39-24.35 36.26-24.35 58.02s8.75 42.63 24.35 58.02l1754.4 1731.06c5.82 5.72 13.23 9.62 21.3 11.2s16.43.76 24.03-2.34c7.59-3.1 14.09-8.35 18.67-15.09s7.03-14.67 7.05-22.78z" fill="url(#b)"/><path d="m-1109.19 2058.02v-1661.922c-.02-8.172-2.51-16.154-7.15-22.925-4.64-6.77-11.22-12.022-18.9-15.084s-16.11-3.796-24.22-2.107c-8.1 1.69-15.51 5.725-21.28 11.59l-799.16 814.458c-5.75 5.88-13.15 9.94-21.26 11.64-8.1 1.69-16.54.96-24.22-2.1-7.68-3.07-14.25-8.33-18.87-15.12-4.63-6.78-7.09-14.77-7.08-22.95l.01-1703.01c0-21.768 8.76-42.644 24.36-58.036s36.76-24.039 58.82-24.039l1717.893.001c10.924 0 21.742 2.122 31.835 6.247 10.092 4.125 19.263 10.17 26.987 17.791 7.725 7.621 13.853 16.669 18.033 26.627 4.181 9.958 6.332 20.631 6.332 31.409v1703.14c.019 8.17 2.507 16.15 7.147 22.92s11.22 12.02 18.901 15.09c7.68 3.06 16.111 3.79 24.216 2.1s15.515-5.72 21.2842-11.59l811.7778-826.182c15.591-15.391 24.349-36.26 24.349-58.02s-8.758-42.63-24.349-58.02l-1766.656-1742.908c-15.59-15.38-36.75-24.02-58.8-24.02-22.06 0-43.21 8.64-58.81 24.02l-1766.65 1742.907c-15.59 15.391-24.35 36.26-24.35 58.021 0 21.76 8.76 42.629 24.35 58.02l1754.4 1731.062c5.82 5.72 13.24 9.62 21.3 11.2 8.07 1.58 16.43.76 24.03-2.34s14.1-8.35 18.68-15.09c4.57-6.74 7.03-14.67 7.05-22.78z" fill="url(#c)"/></g></g></svg>