<svg id="Layer_1" data-name="Layer 1" xmlns="http://www.w3.org/2000/svg" viewBox="0 0 96 96"><defs><style>.cls-1{fill:#abbcfe;}.cls-2{fill:#101411;}</style></defs><circle class="cls-1" cx="48" cy="48" r="47.5"/><path class="cls-1" d="M48,1A47,47,0,1,1,1,48,47,47,0,0,1,48,1m0-1A48,48,0,1,0,96,48,48,48,0,0,0,48,0Z"/><path class="cls-2" d="M85.41,48.52H50.91a.87.87,0,0,0-.47.15.84.84,0,0,0-.36.89.92.92,0,0,0,.24.43L67.23,66.38a.88.88,0,0,1,.24.43.86.86,0,0,1,0,.5.77.77,0,0,1-.31.38.83.83,0,0,1-.48.15H31.29a1.72,1.72,0,0,1-1.21-.5,1.7,1.7,0,0,1-.5-1.21V30.91a1.84,1.84,0,0,1,.13-.65,2,2,0,0,1,.37-.55,1.61,1.61,0,0,1,.56-.37,1.57,1.57,0,0,1,.65-.13H66.64a.8.8,0,0,0,.47-.15.91.91,0,0,0,.32-.38.94.94,0,0,0,0-.5.91.91,0,0,0-.24-.44L50.08,11.1a1.7,1.7,0,0,0-1.2-.5,1.72,1.72,0,0,0-1.21.5L11.5,47.32a1.7,1.7,0,0,0,0,2.41L47.67,86a1.72,1.72,0,0,0,1.21.5,1.7,1.7,0,0,0,1.2-.5L86,50a.82.82,0,0,0,.23-.44.83.83,0,0,0,0-.49.82.82,0,0,0-.31-.38A.87.87,0,0,0,85.41,48.52Z"/></svg>