<svg width="34" height="33" viewBox="0 0 34 33" fill="none" xmlns="http://www.w3.org/2000/svg">
<ellipse cx="17" cy="16.5" rx="17" ry="16.5" fill="#ABBEFF"/>
<path d="M27.7626 16.5H18.1376C18.0903 16.5001 18.044 16.5142 18.0048 16.5406C17.9656 16.5669 17.9352 16.6043 17.9175 16.6479C17.8997 16.6914 17.8955 16.7393 17.9053 16.7853C17.915 16.8313 17.9384 16.8734 17.9724 16.9061L22.6893 21.4424C22.7234 21.475 22.7469 21.517 22.7567 21.563C22.7665 21.609 22.7623 21.6569 22.7445 21.7005C22.7268 21.7441 22.6963 21.7814 22.657 21.8077C22.6177 21.8339 22.5714 21.8479 22.5241 21.8478H12.6611C12.5351 21.8478 12.4141 21.798 12.325 21.7095C12.2359 21.6209 12.1858 21.5008 12.1858 21.3756V11.6244C12.1858 11.5624 12.1981 11.501 12.222 11.4437C12.2459 11.3864 12.2809 11.3344 12.325 11.2905C12.3691 11.2467 12.4215 11.2119 12.4792 11.1881C12.5369 11.1644 12.5987 11.1522 12.6611 11.1522H22.5248C22.5721 11.1521 22.6184 11.138 22.6576 11.1116C22.6968 11.0853 22.7272 11.0479 22.7449 11.0044C22.7627 10.9608 22.7669 10.9129 22.7571 10.8669C22.7473 10.8209 22.724 10.7788 22.69 10.7461L17.9052 6.13821C17.816 6.04971 17.6952 6 17.5692 6C17.4431 6 17.3223 6.04971 17.2331 6.13821L7.13913 16.1662C7.05005 16.2547 7 16.3748 7 16.5C7 16.6252 7.05005 16.7453 7.13913 16.8338L17.2331 26.8618C17.3223 26.9503 17.4431 27 17.5692 27C17.6952 27 17.816 26.9503 17.9052 26.8618L27.9306 16.9033C27.9637 16.8703 27.9863 16.8282 27.9955 16.7824C28.0046 16.7366 27.9999 16.6892 27.9819 16.646C27.964 16.6029 27.9335 16.566 27.8945 16.54C27.8555 16.514 27.8096 16.5001 27.7626 16.5Z" fill="#101411"/>
</svg>
