<?xml version="1.0" encoding="UTF-8" standalone="no"?>
<svg
   xmlns:dc="http://purl.org/dc/elements/1.1/"
   xmlns:cc="http://creativecommons.org/ns#"
   xmlns:rdf="http://www.w3.org/1999/02/22-rdf-syntax-ns#"
   xmlns:svg="http://www.w3.org/2000/svg"
   xmlns="http://www.w3.org/2000/svg"
   xmlns:sodipodi="http://sodipodi.sourceforge.net/DTD/sodipodi-0.dtd"
   xmlns:inkscape="http://www.inkscape.org/namespaces/inkscape"
   version="1.2"
   width="256"
   height="256"
   id="Capa_1"
   x="0px"
   y="0px"
   viewBox="0 0 256 256"
   xml:space="preserve"
   sodipodi:docname="Sovryn SOV Coin Icon 256x256.svg"
   inkscape:version="1.0.2 (e86c870879, 2021-01-15, custom)"><metadata
   id="metadata903"><rdf:RDF><cc:Work
       rdf:about=""><dc:format>image/svg+xml</dc:format><dc:type
         rdf:resource="http://purl.org/dc/dcmitype/StillImage" /><dc:title></dc:title></cc:Work></rdf:RDF></metadata><defs
   id="defs901">
                
                
              
                  
                </defs><sodipodi:namedview
   pagecolor="#ffffff"
   bordercolor="#666666"
   borderopacity="1"
   objecttolerance="10"
   gridtolerance="10"
   guidetolerance="10"
   inkscape:pageopacity="0"
   inkscape:pageshadow="2"
   inkscape:window-width="1366"
   inkscape:window-height="705"
   id="namedview899"
   showgrid="false"
   inkscape:zoom="0.53519145"
   inkscape:cx="78.849832"
   inkscape:cy="21.4"
   inkscape:window-x="-8"
   inkscape:window-y="-8"
   inkscape:window-maximized="1"
   inkscape:current-layer="Capa_1" />
              <g
   id="g894"
   transform="matrix(5.752809,0,0,5.9918081,0,-3.5950849)"
   style="fill:#000000">
                  <path
   fill-rule="evenodd"
   d="m 13,15.8 c 0.2,-5 2,-8.6 8.6,-9.2 v 0 c 0.1,0 0.2,0 0.3,0 h 16 L 40.5,3 C 41,2.3 40.5,1.4 39.7,1.4 H 4.4 C 3.6,1.4 3.1,2.4 3.6,3 Z m 14.1,5.5 8.1,-11 H 21.9 c -1,0 -1.9,-0.8 -1.9,-1.9 -4.8,1.1 -5.9,3.5 -6.7,7.4 h 9.8 c 0,0 0.1,0 0.1,0 0,0 0.1,0 0.1,0 5.1,0.2 5.2,2.7 3.8,5.5 z M 0,0.6 21.3,42.8 c 0.4,0.7 1.4,0.7 1.8,0 L 26,37.1 22.2,31.4 Z m 23.1,19 h -7.3 l 5.4,7.4 c 0.4,0.5 1.2,0.5 1.6,0 l 2.4,-3.3 0.9,-1.2 v 0 c 0.1,-0.1 0.1,-0.2 0.2,-0.3 0.6,-2.4 1,-4.8 -1.6,-5.4 0,0 0,0 0,0 v 0 c 0.1,0.3 0.2,0.6 0.2,0.9 v 0 c 0.1,1.1 -0.7,1.9 -1.8,1.9 z m 2.1,7.7 -2.1,3 3.7,5.4 0.5,-1 17.2,-34.1 z"
   id="path892"
   style="fill:#000000" />
                </g>
            </svg>
