<svg id="Layer_1" data-name="Layer 1" xmlns="http://www.w3.org/2000/svg" viewBox="0 0 376.93 366"><defs><style>.cls-1{fill:#abbeff;}.cls-2{fill:#101411;}</style></defs><rect class="cls-1" width="376.93" height="366"/><path class="cls-2" d="M1084.62,540H967.74a2.9,2.9,0,0,0-2.82,3.49,2.87,2.87,0,0,0,.82,1.48L1023,600.48a2.91,2.91,0,0,1,.82,1.48,2.92,2.92,0,0,1-1.21,3,2.9,2.9,0,0,1-1.61.49H901.24a5.79,5.79,0,0,1-5.77-5.78V480.33a5.77,5.77,0,0,1,.44-2.21,5.64,5.64,0,0,1,1.25-1.87,5.72,5.72,0,0,1,4.08-1.7H1021a2.9,2.9,0,0,0,1.61-.49,3,3,0,0,0,1.06-1.32,2.88,2.88,0,0,0-.67-3.16l-58.1-56.39a5.77,5.77,0,0,0-8.16,0L834.19,535.91a5.79,5.79,0,0,0,0,8.18L956.76,666.81a5.77,5.77,0,0,0,8.16,0l121.74-121.87a2.92,2.92,0,0,0,.78-1.48,2.81,2.81,0,0,0-.16-1.67,2.93,2.93,0,0,0-1.06-1.3A2.87,2.87,0,0,0,1084.62,540Z" transform="translate(-771.54 -357)"/></svg>