<svg viewBox="0 0 77 78" fill="none" xmlns="http://www.w3.org/2000/svg">
<path d="M76.1294 39L40.8379 39C40.6643 39.0004 40.4948 39.0529 40.351 39.1507C40.2073 39.2485 40.0957 39.3872 40.0307 39.5492C39.9657 39.7111 39.9501 39.8889 39.986 40.0597C40.0218 40.2306 40.1075 40.3869 40.2321 40.5085L57.5275 57.3574C57.6524 57.4786 57.7385 57.6347 57.7746 57.8056C57.8106 57.9764 57.7951 58.1543 57.73 58.3162C57.6649 58.4781 57.5531 58.6167 57.409 58.7142C57.265 58.8117 57.0953 58.8636 56.9217 58.8632H20.7574C20.2952 58.8632 19.8519 58.6785 19.525 58.3495C19.1982 58.0206 19.0146 57.5745 19.0146 57.1094L19.0146 20.8906C19.0146 20.6603 19.0596 20.4322 19.1472 20.2194C19.2348 20.0067 19.3632 19.8133 19.525 19.6505C19.6869 19.4876 19.879 19.3584 20.0905 19.2703C20.3019 19.1821 20.5286 19.1368 20.7574 19.1368L56.9243 19.1368C57.0978 19.1364 57.2673 19.0839 57.4111 18.9861C57.5549 18.8883 57.6664 18.7495 57.7314 18.5876C57.7965 18.4257 57.812 18.2479 57.7762 18.077C57.7403 17.9062 57.6546 17.7499 57.5301 17.6283L39.9857 0.513367C39.6588 0.184654 39.2157 0 38.7536 0C38.2915 0 37.8483 0.184654 37.5215 0.513367L0.510157 37.7602C0.183499 38.0891 0 38.535 0 39C0 39.465 0.183499 39.9109 0.510157 40.2398L37.5215 77.4866C37.8483 77.8153 38.2915 78 38.7536 78C39.2157 78 39.6588 77.8153 39.9857 77.4866L76.7455 40.4981C76.8671 40.3753 76.9498 40.219 76.9833 40.049C77.0168 39.8789 76.9996 39.7026 76.9337 39.5424C76.8678 39.3822 76.7563 39.2452 76.6132 39.1487C76.47 39.0522 76.3017 39.0004 76.1294 39Z" fill="#57E58E"/>
</svg>
